PathFileType	4	(X/Y/Z)	C:/Users/beibeiliu/ov580/test_trc/User3\sequence.45_training_dense_right.trc
DataRate	CameraRate	NumFrames	NumMarkers	Units	OrigDataRate	OrigDataStartFrame	OrigNumFrames
120	120	12	19	mm	120	54	107
Frame#	Time	ThumbCMC			ThumbMCP			ThumbIP			ThumbTip			IndexMCP			IndexPIP			IndexTip			MiddleMCP			MiddlePIP			MiddleTip			RingMCP			RingPIP			RingTip			PinkyMCP			PinkyPIP			PinkyTip			BackHand1			BackHand2			BackHand3	
		X0	Y0	Z0	X1	Y1	Z1	X2	Y2	Z2	X3	Y3	Z3	X4	Y4	Z4	X5	Y5	Z5	X6	Y6	Z6	X7	Y7	Z7	X8	Y8	Z8	X9	Y9	Z9	X10	Y10	Z10	X11	Y11	Z11	X12	Y12	Z12	X13	Y13	Z13	X14	Y14	Z14	X15	Y15	Z15	X16	Y16	Z16	X17	Y17	Z17	X18	Y18	Z18	
53	0.441667	182.775	42.8282	30.0242	150.91	26.3571	24.2226	135.698	3.3827	16.1991	136.783	-26.6058	7.53729	162.735	2.60846	-32.5139	138.784	-17.8424	-26.6254	143.908	-13.6656	6.17049	168.038	-15.4751	-29.9851	146.628	-34.9025	-8.53335	163.241	-22.6494	22.84	180.958	-33.7774	-15.6394	166.179	-42.9084	7.68884	176.979	-18.1123	31.5006	197.571	-39.3511	-2.59411	182.436	-45.784	19.8278	188.924	-23.6198	39.1544	229.08	6.52541	-5.21523	243.302	21.3996	16.9435	212.71	39.6408	3.00558	
54	0.45	207.201	59.4345	29.491	175.529	59.2577	17.7799	151.137	42.9646	2.40407	144.311	19.7746	-0.409887	178.442	28.0013	-37.6876	148.465	24.5923	-26.1227	157.831	29.6314	2.9211	176.424	10.3671	-31.5257	150.693	7.00407	-9.38298	170.235	17.7045	19.358	179.466	-5.23113	-14.607	162.919	-8.35049	8.81549	181.731	8.79798	30.4129	186.71	-18.702	-1.59949	173.321	-12.0443	20.868	196.273	2.37134	38.7687	235.437	9.30675	-0.354157	253.449	14.7485	28.229	235.692	44.1781	6.19487	
55	0.458333	247.587	63.976	21.8244	228.073	74.4802	-5.16163	208.514	71.5265	-25.8211	195.669	46.3523	-33.5127	240.968	42.7003	-50.3935	210.596	49.626	-52.9886	207.071	55.9739	-22.6805	229.012	25.366	-46.9515	199.299	36.7885	-39.7284	211.267	38.2569	-0.625904	218.969	8.94232	-31.1403	194.737	26.8716	-17.6792	209.278	28.3378	12.5445	214.769	-1.4978	-19.1519	194.075	12.6867	-3.78832	212.036	20.9532	18.3692	262.569	1.75388	5.34888	264.769	5.87844	39.815	273.663	38.4128	14.9141	
56	0.466667	272.404	62.2811	18.6885	272.265	78.4926	-13.017	266.455	75.1991	-41.8158	252.063	59.1588	-57.2602	293.952	35.2795	-49.2611	277.851	53.2206	-67.3486	255.869	63.3927	-41.7704	278.99	23.5379	-52.6257	254.662	41.2572	-62.8795	245.057	45.7927	-24.1877	259.543	15.768	-44.9055	232.567	33.6598	-46.1599	231.452	36.283	-13.3568	245.446	8.07784	-38.0267	222.74	25.2746	-34.7476	225.612	23.6171	-4.01595	269.079	-3.10308	8.96055	258.98	2.44862	37.9466	284.751	26.0071	23.1079	
57	0.475	244.563	60.225	9.29224	249.015	74.1792	-24.913	247.538	73.6462	-56.6643	236.186	56.0456	-67.8616	277.765	34.6848	-54.3033	257.609	47.4806	-77.4904	235.374	54.0948	-52.0635	260.558	17.5066	-61.3517	235.182	36.7463	-72.5324	224.643	37.3056	-36.3492	240.343	7.14056	-54.8616	215.883	25.9605	-58.9127	215.167	33.4324	-24.7161	225.161	-0.646225	-51.5774	208.338	19.4783	-47.436	208.332	20.1065	-13.7131	251.889	-3.78225	0.970432	236.994	-2.11309	25.6392	260.296	24.031	15.1915	
58	0.483333	180.784	54.4719	-2.0508	164.623	65.422	-29.3067	153.074	62.1168	-57.4725	146.518	34.5237	-68.2477	192.691	30.7886	-70.3308	161.5	37.1956	-80.4606	158.147	41.1485	-48.5232	184.353	11.2986	-69.0315	149.777	15.2062	-66.1185	161.647	25.1594	-28.6096	174.182	-0.881448	-57.6281	145.221	3.38703	-45.5035	156.016	15.3228	-18.4634	166.646	-18.0016	-45.827	145.33	-3.5301	-34.5606	157.76	5.14027	-7.09145	207.124	-4.68127	-9.57597	204.656	-1.14711	22.9497	210.053	30.3019	1.05114	
59	0.491667	119.216	45.2178	9.05577	86.9953	47.707	-6.68521	69.6173	30.7463	-26.1223	62.4098	9.7146	-34.1103	99.9407	24.6775	-58.978	72.0042	13.2509	-50.5656	86.8817	18.307	-20.3896	98.7484	-0.883963	-53.7083	75.5748	-5.89688	-32.0231	99.882	8.17465	-6.32068	104.887	-16.8129	-38.8541	87.551	-17.5137	-12.7647	109.735	-0.736054	4.92475	113.477	-30.3563	-27.3924	97.2453	-24.491	-4.3233	115.756	-7.2513	9.69833	154.887	1.5639	-22.2815	170.852	7.56183	10.3561	153.38	35.0383	-6.90109	
60	0.5	96.1626	46.8352	22.8854	65.2865	37.1119	14.8512	38.5267	25.6404	5.05522	26.4274	1.97696	-3.30979	60.6752	15.0093	-40.7896	35.899	6.18735	-20.8846	56.0652	15.6897	4.33876	66.034	-3.23229	-34.4024	45.0511	-9.99406	-8.62679	80.0599	3.93583	12.8229	73.1443	-22.5147	-18.7438	66.1816	-22.3151	8.7197	91.1303	-2.49746	20.7246	88.6304	-33.7675	-10.0687	78.0122	-23.2153	15.1712	100.578	-11.889	27.3709	128.727	1.74106	-19.3181	149.999	10.862	5.02997	123.695	36.1541	-8.25399	
61	0.508333	109.707	49.3707	21.8925	76.7167	48.9533	20.728	48.5323	37.4773	10.0478	38.9041	15.1241	3.55546	75.1146	23.6619	-35.7207	45.7668	11.2645	-20.111	56.9481	20.6402	7.68992	76.9051	-1.71587	-28.4658	52.2822	-2.04435	-2.83408	81.7856	10.5573	20.0722	81.0113	-13.7337	-14.7961	68.49	-15.5205	11.5519	95.1621	-0.327776	28.4817	90.4026	-26.4535	-4.19073	82.9299	-23.1717	20.1887	108.068	-3.71184	33.1102	136.227	-0.725475	-13.3857	159.085	7.2999	9.40777	136.268	38.1725	-3.74693	
62	0.516667	145.857	49.1207	22.2725	114.139	51.5769	13.5011	85.2391	46.6915	-2.95244	69.7585	29.7734	-9.60998	115.714	22.5367	-39.617	83.7248	19.5076	-34.0684	85.9934	28.1701	0.289484	105.671	1.11537	-34.7041	82.3232	6.0519	-13.4055	109.312	11.0924	17.9401	112.135	-14.704	-17.8532	92.6661	-6.44968	7.73317	120.831	3.60445	27.1526	116.865	-29.2113	-5.37624	103.567	-16.1323	17.1816	127.801	-3.25192	31.2309	167.83	-7.42732	-4.96894	187.697	-5.55818	21.186	170.757	26.6284	1.36009	
63	0.525	176.538	41.1353	23.9795	149.988	47.681	7.83072	127.352	52.1761	-11.8612	107.247	37.2709	-26.5295	156.966	17.4816	-42.5032	122.86	27.0453	-43.7551	120.419	26.695	-9.86182	145.64	-1.36309	-37.646	117.661	6.57984	-25.9818	136.813	9.07217	13.6104	143.434	-17.5075	-21.4832	120.976	-9.15169	-2.15092	141.484	-0.789235	22.077	142.414	-31.1572	-8.32224	127.185	-16.1805	7.06875	147.046	-8.06139	30.4826	194.934	-20.0525	-0.447013	207.95	-17.8665	33.3515	202.233	16.5189	10.0694	
64	0.533333	198.642	33.7329	32.0087	176.812	45.3709	2.71143	159.852	50.8538	-17.2372	143.858	37.8387	-37.8689	193.113	15.3605	-42.9936	158.099	24.3599	-50.5959	149.115	26.9963	-19.6348	177.204	-2.0797	-41.0553	146.696	4.43679	-32.8748	157.114	11.9154	4.93099	168.434	-19.6654	-25.4632	142.448	-8.4251	-7.19396	159.111	-0.250698	16.3263	163.449	-31.407	-12.4196	146.218	-15.7105	3.40826	162.527	-11.9739	28.5382	212.225	-29.615	7.25609	219.721	-27.7521	41.671	222.89	5.00297	21.0528	
